<mxfile host="app.diagrams.net" agent="Mozilla/5.0 (Windows NT 10.0; Win64; x64) AppleWebKit/537.36 (KHTML, like Gecko) Chrome/140.0.0.0 Safari/537.36" version="28.2.5">
  <diagram name="PÃ¡gina-1" id="MEg205cAF23KbVcI1lB2">
    <mxGraphModel dx="2852" dy="1498" grid="1" gridSize="10" guides="1" tooltips="1" connect="1" arrows="1" fold="1" page="1" pageScale="1" pageWidth="827" pageHeight="1169" background="none" math="0" shadow="0" adaptiveColors="none">
      <root>
        <mxCell id="0" />
        <mxCell id="1" parent="0" />
        <mxCell id="BMP8ENy1S9Kmtb3uV5n3-11" value="Exercise" style="rounded=0;whiteSpace=wrap;html=1;labelBackgroundColor=none;fillColor=#F2CC8F;strokeColor=#E07A5F;fontColor=#393C56;" parent="1" vertex="1">
          <mxGeometry x="522.5" y="70" width="70" height="20" as="geometry" />
        </mxCell>
        <mxCell id="BMP8ENy1S9Kmtb3uV5n3-57" value="Rutine" style="rounded=0;whiteSpace=wrap;html=1;labelBackgroundColor=none;fillColor=#F2CC8F;strokeColor=#E07A5F;fontColor=#393C56;" parent="1" vertex="1">
          <mxGeometry x="1060" y="70" width="100" height="20" as="geometry" />
        </mxCell>
        <mxCell id="BMP8ENy1S9Kmtb3uV5n3-60" value="Workout" style="rounded=0;whiteSpace=wrap;html=1;labelBackgroundColor=none;fillColor=#F2CC8F;strokeColor=#E07A5F;fontColor=#393C56;" parent="1" vertex="1">
          <mxGeometry x="780" y="70" width="100" height="20" as="geometry" />
        </mxCell>
        <mxCell id="BMP8ENy1S9Kmtb3uV5n3-62" value="Name" style="text;strokeColor=#314354;align=center;fillColor=#647687;html=1;verticalAlign=middle;whiteSpace=wrap;rounded=0;labelBackgroundColor=none;fontColor=#ffffff;" parent="1" vertex="1">
          <mxGeometry x="840" y="40" width="80" height="20" as="geometry" />
        </mxCell>
        <mxCell id="BMP8ENy1S9Kmtb3uV5n3-63" value="Days" style="text;strokeColor=#314354;align=center;fillColor=#647687;html=1;verticalAlign=middle;whiteSpace=wrap;rounded=0;labelBackgroundColor=none;fontColor=#ffffff;" parent="1" vertex="1">
          <mxGeometry x="840" y="10" width="80" height="20" as="geometry" />
        </mxCell>
        <mxCell id="jyfbiv6ZtFxNGjWQ2MaE-25" value="Customer_ID" style="text;strokeColor=#314354;align=center;fillColor=#647687;html=1;verticalAlign=middle;whiteSpace=wrap;rounded=0;labelBackgroundColor=none;fontColor=#ffffff;" parent="1" vertex="1">
          <mxGeometry x="752.5" y="40" width="77.5" height="20" as="geometry" />
        </mxCell>
        <mxCell id="jyfbiv6ZtFxNGjWQ2MaE-26" value="ID" style="text;strokeColor=#314354;align=center;fillColor=#647687;html=1;verticalAlign=middle;whiteSpace=wrap;rounded=0;labelBackgroundColor=none;fontColor=#ffffff;" parent="1" vertex="1">
          <mxGeometry x="752.5" y="10" width="77.5" height="20" as="geometry" />
        </mxCell>
        <mxCell id="jyfbiv6ZtFxNGjWQ2MaE-31" value="Week_Days" style="rounded=0;whiteSpace=wrap;html=1;labelBackgroundColor=none;fillColor=#F2CC8F;strokeColor=#E07A5F;fontColor=#393C56;" parent="1" vertex="1">
          <mxGeometry x="780" y="210" width="100" height="20" as="geometry" />
        </mxCell>
        <mxCell id="T90zVaQdE3CuUc_-cCi9-25" style="edgeStyle=orthogonalEdgeStyle;rounded=0;orthogonalLoop=1;jettySize=auto;html=1;entryX=0;entryY=0.5;entryDx=0;entryDy=0;endArrow=none;endFill=0;" parent="1" target="T90zVaQdE3CuUc_-cCi9-7" edge="1">
          <mxGeometry relative="1" as="geometry">
            <mxPoint x="346" y="1260" as="sourcePoint" />
          </mxGeometry>
        </mxCell>
        <mxCell id="T90zVaQdE3CuUc_-cCi9-27" style="edgeStyle=orthogonalEdgeStyle;rounded=0;orthogonalLoop=1;jettySize=auto;html=1;entryX=0.415;entryY=-0.182;entryDx=0;entryDy=0;entryPerimeter=0;endArrow=none;endFill=0;" parent="1" target="T90zVaQdE3CuUc_-cCi9-4" edge="1">
          <mxGeometry relative="1" as="geometry">
            <mxPoint x="674" y="1290" as="sourcePoint" />
          </mxGeometry>
        </mxCell>
        <mxCell id="T90zVaQdE3CuUc_-cCi9-33" style="edgeStyle=orthogonalEdgeStyle;rounded=0;orthogonalLoop=1;jettySize=auto;html=1;exitX=0.5;exitY=1;exitDx=0;exitDy=0;endArrow=oval;endFill=0;" parent="1" source="pFR4GA6-vP2tQE4cFtqX-128" edge="1">
          <mxGeometry relative="1" as="geometry">
            <mxPoint x="847" y="990" as="targetPoint" />
            <mxPoint x="874.5" y="1005" as="sourcePoint" />
            <Array as="points">
              <mxPoint x="847" y="980" />
              <mxPoint x="847" y="980" />
            </Array>
          </mxGeometry>
        </mxCell>
        <mxCell id="aXXxI1qADEioDbkJjRRy-9" value="HAS" style="rhombus;whiteSpace=wrap;html=1;" parent="1" vertex="1">
          <mxGeometry x="930" y="60" width="80" height="40" as="geometry" />
        </mxCell>
        <mxCell id="aXXxI1qADEioDbkJjRRy-12" value="HAS" style="rhombus;whiteSpace=wrap;html=1;" parent="1" vertex="1">
          <mxGeometry x="650" y="60" width="80" height="40" as="geometry" />
        </mxCell>
        <mxCell id="aXXxI1qADEioDbkJjRRy-15" value="IS ASSIGNED TO" style="rhombus;whiteSpace=wrap;html=1;" parent="1" vertex="1">
          <mxGeometry x="752" y="120" width="156" height="60" as="geometry" />
        </mxCell>
        <mxCell id="pFR4GA6-vP2tQE4cFtqX-7" value="" style="endArrow=none;html=1;rounded=0;exitX=1;exitY=0.5;exitDx=0;exitDy=0;entryX=0;entryY=0.5;entryDx=0;entryDy=0;" edge="1" parent="1" source="BMP8ENy1S9Kmtb3uV5n3-11" target="aXXxI1qADEioDbkJjRRy-12">
          <mxGeometry width="50" height="50" relative="1" as="geometry">
            <mxPoint x="630" y="140" as="sourcePoint" />
            <mxPoint x="680" y="90" as="targetPoint" />
          </mxGeometry>
        </mxCell>
        <mxCell id="pFR4GA6-vP2tQE4cFtqX-8" value="" style="endArrow=none;html=1;rounded=0;exitX=1;exitY=0.5;exitDx=0;exitDy=0;" edge="1" parent="1" source="aXXxI1qADEioDbkJjRRy-12" target="BMP8ENy1S9Kmtb3uV5n3-60">
          <mxGeometry width="50" height="50" relative="1" as="geometry">
            <mxPoint x="710" y="79.66" as="sourcePoint" />
            <mxPoint x="780" y="79.66" as="targetPoint" />
          </mxGeometry>
        </mxCell>
        <mxCell id="pFR4GA6-vP2tQE4cFtqX-9" value="" style="endArrow=none;html=1;rounded=0;exitX=1;exitY=0.5;exitDx=0;exitDy=0;entryX=0;entryY=0.5;entryDx=0;entryDy=0;" edge="1" parent="1" source="BMP8ENy1S9Kmtb3uV5n3-60" target="aXXxI1qADEioDbkJjRRy-9">
          <mxGeometry width="50" height="50" relative="1" as="geometry">
            <mxPoint x="880" y="79.8" as="sourcePoint" />
            <mxPoint x="950" y="79.8" as="targetPoint" />
          </mxGeometry>
        </mxCell>
        <mxCell id="pFR4GA6-vP2tQE4cFtqX-10" value="" style="endArrow=none;html=1;rounded=0;exitX=1;exitY=0.5;exitDx=0;exitDy=0;entryX=0;entryY=0.5;entryDx=0;entryDy=0;" edge="1" parent="1" source="aXXxI1qADEioDbkJjRRy-9" target="BMP8ENy1S9Kmtb3uV5n3-57">
          <mxGeometry width="50" height="50" relative="1" as="geometry">
            <mxPoint x="1031.5" y="79.66" as="sourcePoint" />
            <mxPoint x="1102.5" y="79.66" as="targetPoint" />
          </mxGeometry>
        </mxCell>
        <mxCell id="pFR4GA6-vP2tQE4cFtqX-13" value="" style="endArrow=none;html=1;rounded=0;exitX=0.5;exitY=0;exitDx=0;exitDy=0;entryX=0.5;entryY=1;entryDx=0;entryDy=0;" edge="1" parent="1" source="aXXxI1qADEioDbkJjRRy-15" target="BMP8ENy1S9Kmtb3uV5n3-60">
          <mxGeometry width="50" height="50" relative="1" as="geometry">
            <mxPoint x="795" y="104.83" as="sourcePoint" />
            <mxPoint x="865" y="104.83" as="targetPoint" />
          </mxGeometry>
        </mxCell>
        <mxCell id="pFR4GA6-vP2tQE4cFtqX-14" value="" style="endArrow=none;html=1;rounded=0;exitX=0.5;exitY=0;exitDx=0;exitDy=0;" edge="1" parent="1" source="jyfbiv6ZtFxNGjWQ2MaE-31">
          <mxGeometry width="50" height="50" relative="1" as="geometry">
            <mxPoint x="829.9000000000001" y="240" as="sourcePoint" />
            <mxPoint x="830" y="180" as="targetPoint" />
          </mxGeometry>
        </mxCell>
        <mxCell id="pFR4GA6-vP2tQE4cFtqX-16" value="Customer_ID" style="text;strokeColor=#314354;align=center;fillColor=#647687;html=1;verticalAlign=middle;whiteSpace=wrap;rounded=0;labelBackgroundColor=none;fontColor=#ffffff;" vertex="1" parent="1">
          <mxGeometry x="1167" y="40" width="80" height="20" as="geometry" />
        </mxCell>
        <mxCell id="pFR4GA6-vP2tQE4cFtqX-17" value="Workouts" style="text;strokeColor=#314354;align=center;fillColor=#647687;html=1;verticalAlign=middle;whiteSpace=wrap;rounded=0;labelBackgroundColor=none;fontColor=#ffffff;" vertex="1" parent="1">
          <mxGeometry x="1167" y="70" width="80" height="20" as="geometry" />
        </mxCell>
        <mxCell id="pFR4GA6-vP2tQE4cFtqX-18" value="Name" style="text;strokeColor=#314354;align=center;fillColor=#647687;html=1;verticalAlign=middle;whiteSpace=wrap;rounded=0;labelBackgroundColor=none;fontColor=#ffffff;" vertex="1" parent="1">
          <mxGeometry x="1167" y="100" width="80" height="20" as="geometry" />
        </mxCell>
        <mxCell id="pFR4GA6-vP2tQE4cFtqX-19" value="Day" style="text;strokeColor=#314354;align=center;fillColor=#647687;html=1;verticalAlign=middle;whiteSpace=wrap;rounded=0;labelBackgroundColor=none;fontColor=#ffffff;" vertex="1" parent="1">
          <mxGeometry x="740" y="240" width="77.5" height="20" as="geometry" />
        </mxCell>
        <mxCell id="pFR4GA6-vP2tQE4cFtqX-20" value="Workout_ID" style="text;strokeColor=#314354;align=center;fillColor=#647687;html=1;verticalAlign=middle;whiteSpace=wrap;rounded=0;labelBackgroundColor=none;fontColor=#ffffff;" vertex="1" parent="1">
          <mxGeometry x="840" y="240" width="77.5" height="20" as="geometry" />
        </mxCell>
        <mxCell id="pFR4GA6-vP2tQE4cFtqX-21" value="ID" style="text;strokeColor=#314354;align=center;fillColor=#647687;html=1;verticalAlign=middle;whiteSpace=wrap;rounded=0;labelBackgroundColor=none;fontColor=#ffffff;" vertex="1" parent="1">
          <mxGeometry x="190" y="35" width="77.5" height="20" as="geometry" />
        </mxCell>
        <mxCell id="pFR4GA6-vP2tQE4cFtqX-22" value="Name" style="text;strokeColor=#314354;align=center;fillColor=#647687;html=1;verticalAlign=middle;whiteSpace=wrap;rounded=0;labelBackgroundColor=none;fontColor=#ffffff;" vertex="1" parent="1">
          <mxGeometry x="272.5" y="35" width="77.5" height="20" as="geometry" />
        </mxCell>
        <mxCell id="pFR4GA6-vP2tQE4cFtqX-23" value="Material" style="text;strokeColor=#314354;align=center;fillColor=#647687;html=1;verticalAlign=middle;whiteSpace=wrap;rounded=0;labelBackgroundColor=none;fontColor=#ffffff;" vertex="1" parent="1">
          <mxGeometry x="355" y="35" width="77.5" height="20" as="geometry" />
        </mxCell>
        <mxCell id="pFR4GA6-vP2tQE4cFtqX-24" value="METs" style="text;strokeColor=#314354;align=center;fillColor=#647687;html=1;verticalAlign=middle;whiteSpace=wrap;rounded=0;labelBackgroundColor=none;fontColor=#ffffff;" vertex="1" parent="1">
          <mxGeometry x="437.5" y="35" width="77.5" height="20" as="geometry" />
        </mxCell>
        <mxCell id="pFR4GA6-vP2tQE4cFtqX-25" value="Muscle Group" style="text;strokeColor=#314354;align=center;fillColor=#647687;html=1;verticalAlign=middle;whiteSpace=wrap;rounded=0;labelBackgroundColor=none;fontColor=#ffffff;" vertex="1" parent="1">
          <mxGeometry x="190" y="65" width="77.5" height="30" as="geometry" />
        </mxCell>
        <mxCell id="pFR4GA6-vP2tQE4cFtqX-26" value="Main muscles" style="text;strokeColor=#314354;align=center;fillColor=#647687;html=1;verticalAlign=middle;whiteSpace=wrap;rounded=0;labelBackgroundColor=none;fontColor=#ffffff;" vertex="1" parent="1">
          <mxGeometry x="272.5" y="65" width="77.5" height="30" as="geometry" />
        </mxCell>
        <mxCell id="pFR4GA6-vP2tQE4cFtqX-27" value="Secondary muscles" style="text;strokeColor=#314354;align=center;fillColor=#647687;html=1;verticalAlign=middle;whiteSpace=wrap;rounded=0;labelBackgroundColor=none;fontColor=#ffffff;" vertex="1" parent="1">
          <mxGeometry x="355" y="65" width="77.5" height="30" as="geometry" />
        </mxCell>
        <mxCell id="pFR4GA6-vP2tQE4cFtqX-28" value="Duration" style="text;strokeColor=#314354;align=center;fillColor=#647687;html=1;verticalAlign=middle;whiteSpace=wrap;rounded=0;labelBackgroundColor=none;fontColor=#ffffff;" vertex="1" parent="1">
          <mxGeometry x="437.5" y="65" width="77.5" height="30" as="geometry" />
        </mxCell>
        <mxCell id="pFR4GA6-vP2tQE4cFtqX-29" value="Preparation" style="text;strokeColor=#314354;align=center;fillColor=#647687;html=1;verticalAlign=middle;whiteSpace=wrap;rounded=0;labelBackgroundColor=none;fontColor=#ffffff;" vertex="1" parent="1">
          <mxGeometry x="190" y="105" width="77.5" height="20" as="geometry" />
        </mxCell>
        <mxCell id="pFR4GA6-vP2tQE4cFtqX-30" value="Execution" style="text;strokeColor=#314354;align=center;fillColor=#647687;html=1;verticalAlign=middle;whiteSpace=wrap;rounded=0;labelBackgroundColor=none;fontColor=#ffffff;" vertex="1" parent="1">
          <mxGeometry x="272.5" y="105" width="77.5" height="20" as="geometry" />
        </mxCell>
        <mxCell id="pFR4GA6-vP2tQE4cFtqX-31" value="Tips" style="text;strokeColor=#314354;align=center;fillColor=#647687;html=1;verticalAlign=middle;whiteSpace=wrap;rounded=0;labelBackgroundColor=none;fontColor=#ffffff;" vertex="1" parent="1">
          <mxGeometry x="355" y="105" width="77.5" height="20" as="geometry" />
        </mxCell>
        <mxCell id="pFR4GA6-vP2tQE4cFtqX-32" value="SVG route" style="text;strokeColor=#314354;align=center;fillColor=#647687;html=1;verticalAlign=middle;whiteSpace=wrap;rounded=0;labelBackgroundColor=none;fontColor=#ffffff;" vertex="1" parent="1">
          <mxGeometry x="437.5" y="105" width="77.5" height="20" as="geometry" />
        </mxCell>
        <mxCell id="pFR4GA6-vP2tQE4cFtqX-33" value="User" style="rounded=0;whiteSpace=wrap;html=1;labelBackgroundColor=none;fillColor=#F2CC8F;strokeColor=#E07A5F;fontColor=#393C56;" vertex="1" parent="1">
          <mxGeometry x="797" y="460" width="100" height="20" as="geometry" />
        </mxCell>
        <mxCell id="pFR4GA6-vP2tQE4cFtqX-34" value="" style="endArrow=none;html=1;rounded=0;startArrow=oval;startFill=0;" edge="1" parent="1">
          <mxGeometry width="50" height="50" relative="1" as="geometry">
            <mxPoint x="807" y="504.76" as="sourcePoint" />
            <mxPoint x="847" y="504.76" as="targetPoint" />
          </mxGeometry>
        </mxCell>
        <mxCell id="pFR4GA6-vP2tQE4cFtqX-36" value="Rol" style="text;strokeColor=#314354;align=center;fillColor=#647687;html=1;verticalAlign=middle;whiteSpace=wrap;rounded=0;labelBackgroundColor=none;fontColor=#ffffff;" vertex="1" parent="1">
          <mxGeometry x="725.5" y="495" width="77.5" height="20" as="geometry" />
        </mxCell>
        <mxCell id="pFR4GA6-vP2tQE4cFtqX-40" style="edgeStyle=orthogonalEdgeStyle;rounded=0;orthogonalLoop=1;jettySize=auto;html=1;entryX=0.5;entryY=0;entryDx=0;entryDy=0;endArrow=none;endFill=0;" edge="1" parent="1" target="pFR4GA6-vP2tQE4cFtqX-57">
          <mxGeometry relative="1" as="geometry">
            <Array as="points">
              <mxPoint x="847" y="530" />
              <mxPoint x="773" y="530" />
              <mxPoint x="773" y="560" />
            </Array>
            <mxPoint x="847" y="480" as="sourcePoint" />
            <mxPoint x="777" y="545" as="targetPoint" />
          </mxGeometry>
        </mxCell>
        <mxCell id="pFR4GA6-vP2tQE4cFtqX-41" style="edgeStyle=orthogonalEdgeStyle;rounded=0;orthogonalLoop=1;jettySize=auto;html=1;entryX=0.5;entryY=0;entryDx=0;entryDy=0;endArrow=none;endFill=0;" edge="1" parent="1" target="pFR4GA6-vP2tQE4cFtqX-58">
          <mxGeometry relative="1" as="geometry">
            <Array as="points">
              <mxPoint x="847" y="530" />
              <mxPoint x="931" y="530" />
            </Array>
            <mxPoint x="847" y="480" as="sourcePoint" />
            <mxPoint x="917" y="545" as="targetPoint" />
          </mxGeometry>
        </mxCell>
        <mxCell id="pFR4GA6-vP2tQE4cFtqX-48" value="ID" style="text;strokeColor=#314354;align=center;fillColor=#647687;html=1;verticalAlign=middle;whiteSpace=wrap;rounded=0;labelBackgroundColor=none;fontColor=#ffffff;" vertex="1" parent="1">
          <mxGeometry x="719.5" y="400" width="77.5" height="20" as="geometry" />
        </mxCell>
        <mxCell id="pFR4GA6-vP2tQE4cFtqX-49" value="Name" style="text;strokeColor=#314354;align=center;fillColor=#647687;html=1;verticalAlign=middle;whiteSpace=wrap;rounded=0;labelBackgroundColor=none;fontColor=#ffffff;" vertex="1" parent="1">
          <mxGeometry x="808.25" y="400" width="77.5" height="20" as="geometry" />
        </mxCell>
        <mxCell id="pFR4GA6-vP2tQE4cFtqX-51" value="Email" style="text;strokeColor=#314354;align=center;fillColor=#647687;html=1;verticalAlign=middle;whiteSpace=wrap;rounded=0;labelBackgroundColor=none;fontColor=#ffffff;" vertex="1" parent="1">
          <mxGeometry x="719.5" y="425" width="77.5" height="20" as="geometry" />
        </mxCell>
        <mxCell id="pFR4GA6-vP2tQE4cFtqX-52" value="Password" style="text;strokeColor=#314354;align=center;fillColor=#647687;html=1;verticalAlign=middle;whiteSpace=wrap;rounded=0;labelBackgroundColor=none;fontColor=#ffffff;" vertex="1" parent="1">
          <mxGeometry x="808.25" y="425" width="77.5" height="20" as="geometry" />
        </mxCell>
        <mxCell id="pFR4GA6-vP2tQE4cFtqX-53" value="Age" style="text;strokeColor=#314354;align=center;fillColor=#647687;html=1;verticalAlign=middle;whiteSpace=wrap;rounded=0;labelBackgroundColor=none;fontColor=#ffffff;" vertex="1" parent="1">
          <mxGeometry x="898.5" y="425" width="77.5" height="20" as="geometry" />
        </mxCell>
        <mxCell id="pFR4GA6-vP2tQE4cFtqX-54" value="Username" style="text;strokeColor=#314354;align=center;fillColor=#647687;html=1;verticalAlign=middle;whiteSpace=wrap;rounded=0;labelBackgroundColor=none;fontColor=#ffffff;" vertex="1" parent="1">
          <mxGeometry x="898.5" y="400" width="77.5" height="20" as="geometry" />
        </mxCell>
        <mxCell id="pFR4GA6-vP2tQE4cFtqX-57" value="Customer" style="rounded=0;whiteSpace=wrap;html=1;labelBackgroundColor=none;fillColor=#F2CC8F;strokeColor=#E07A5F;fontColor=#393C56;" vertex="1" parent="1">
          <mxGeometry x="738.25" y="560" width="70" height="20" as="geometry" />
        </mxCell>
        <mxCell id="pFR4GA6-vP2tQE4cFtqX-58" value="Coach" style="rounded=0;whiteSpace=wrap;html=1;labelBackgroundColor=none;fillColor=#F2CC8F;strokeColor=#E07A5F;fontColor=#393C56;" vertex="1" parent="1">
          <mxGeometry x="897" y="560" width="70" height="20" as="geometry" />
        </mxCell>
        <mxCell id="pFR4GA6-vP2tQE4cFtqX-65" value="Ubication&lt;span style=&quot;color: rgba(0, 0, 0, 0); font-family: monospace; font-size: 0px; text-align: start; text-wrap-mode: nowrap;&quot;&gt;%3CmxGraphModel%3E%3Croot%3E%3CmxCell%20id%3D%220%22%2F%3E%3CmxCell%20id%3D%221%22%20parent%3D%220%22%2F%3E%3CmxCell%20id%3D%222%22%20value%3D%22Age%22%20style%3D%22text%3BstrokeColor%3D%23314354%3Balign%3Dcenter%3BfillColor%3D%23647687%3Bhtml%3D1%3BverticalAlign%3Dmiddle%3BwhiteSpace%3Dwrap%3Brounded%3D0%3BlabelBackgroundColor%3Dnone%3BfontColor%3D%23ffffff%3B%22%20vertex%3D%221%22%20parent%3D%221%22%3E%3CmxGeometry%20x%3D%22341.5%22%20y%3D%22195%22%20width%3D%2277.5%22%20height%3D%2220%22%20as%3D%22geometry%22%2F%3E%3C%2FmxCell%3E%3C%2Froot%3E%3C%2FmxGraphModel%3E&lt;/span&gt;" style="text;strokeColor=#314354;align=center;fillColor=#647687;html=1;verticalAlign=middle;whiteSpace=wrap;rounded=0;labelBackgroundColor=none;fontColor=#ffffff;" vertex="1" parent="1">
          <mxGeometry x="976" y="560" width="77.5" height="20" as="geometry" />
        </mxCell>
        <mxCell id="pFR4GA6-vP2tQE4cFtqX-67" value="Video_Presentation" style="text;strokeColor=#314354;align=center;fillColor=#647687;html=1;verticalAlign=middle;whiteSpace=wrap;rounded=0;labelBackgroundColor=none;fontColor=#ffffff;" vertex="1" parent="1">
          <mxGeometry x="988.75" y="590" width="126" height="20" as="geometry" />
        </mxCell>
        <mxCell id="pFR4GA6-vP2tQE4cFtqX-69" value="Surnames" style="text;strokeColor=#314354;align=center;fillColor=#647687;html=1;verticalAlign=middle;whiteSpace=wrap;rounded=0;labelBackgroundColor=none;fontColor=#ffffff;" vertex="1" parent="1">
          <mxGeometry x="1060" y="560" width="77.5" height="20" as="geometry" />
        </mxCell>
        <mxCell id="pFR4GA6-vP2tQE4cFtqX-73" value="Gender" style="text;strokeColor=#314354;align=center;fillColor=#647687;html=1;verticalAlign=middle;whiteSpace=wrap;rounded=0;labelBackgroundColor=none;fontColor=#ffffff;" vertex="1" parent="1">
          <mxGeometry x="654.5" y="560" width="77.5" height="20" as="geometry" />
        </mxCell>
        <mxCell id="pFR4GA6-vP2tQE4cFtqX-74" value="Weight (kg)" style="text;strokeColor=#314354;align=center;fillColor=#647687;html=1;verticalAlign=middle;whiteSpace=wrap;rounded=0;labelBackgroundColor=none;fontColor=#ffffff;" vertex="1" parent="1">
          <mxGeometry x="570" y="560" width="77.5" height="20" as="geometry" />
        </mxCell>
        <mxCell id="pFR4GA6-vP2tQE4cFtqX-75" value="Height (cm)" style="text;strokeColor=#314354;align=center;fillColor=#647687;html=1;verticalAlign=middle;whiteSpace=wrap;rounded=0;labelBackgroundColor=none;fontColor=#ffffff;" vertex="1" parent="1">
          <mxGeometry x="609.5" y="590" width="77.5" height="20" as="geometry" />
        </mxCell>
        <mxCell id="pFR4GA6-vP2tQE4cFtqX-76" value="&lt;div&gt;HAS&lt;/div&gt;" style="rhombus;whiteSpace=wrap;html=1;" vertex="1" parent="1">
          <mxGeometry x="1011.75" y="490" width="80" height="45" as="geometry" />
        </mxCell>
        <mxCell id="pFR4GA6-vP2tQE4cFtqX-77" style="edgeStyle=orthogonalEdgeStyle;rounded=0;orthogonalLoop=1;jettySize=auto;html=1;endArrow=none;endFill=0;entryX=0;entryY=0.5;entryDx=0;entryDy=0;exitX=0.714;exitY=0;exitDx=0;exitDy=0;exitPerimeter=0;" edge="1" parent="1" source="pFR4GA6-vP2tQE4cFtqX-58" target="pFR4GA6-vP2tQE4cFtqX-76">
          <mxGeometry relative="1" as="geometry">
            <Array as="points">
              <mxPoint x="947" y="513" />
              <mxPoint x="957" y="513" />
            </Array>
            <mxPoint x="927" y="520" as="sourcePoint" />
            <mxPoint x="1012" y="515" as="targetPoint" />
          </mxGeometry>
        </mxCell>
        <mxCell id="pFR4GA6-vP2tQE4cFtqX-78" value="Experience" style="rounded=0;whiteSpace=wrap;html=1;labelBackgroundColor=none;fillColor=#F2CC8F;strokeColor=#E07A5F;fontColor=#393C56;" vertex="1" parent="1">
          <mxGeometry x="1158" y="502.5" width="70" height="20" as="geometry" />
        </mxCell>
        <mxCell id="pFR4GA6-vP2tQE4cFtqX-81" value="" style="endArrow=none;html=1;rounded=0;exitX=1;exitY=0.5;exitDx=0;exitDy=0;entryX=0;entryY=0.5;entryDx=0;entryDy=0;" edge="1" parent="1" source="pFR4GA6-vP2tQE4cFtqX-76" target="pFR4GA6-vP2tQE4cFtqX-78">
          <mxGeometry width="50" height="50" relative="1" as="geometry">
            <mxPoint x="1092.75" y="512.46" as="sourcePoint" />
            <mxPoint x="1157.5" y="512.46" as="targetPoint" />
          </mxGeometry>
        </mxCell>
        <mxCell id="pFR4GA6-vP2tQE4cFtqX-89" value="Coach_ID" style="text;strokeColor=#314354;align=center;fillColor=#647687;html=1;verticalAlign=middle;whiteSpace=wrap;rounded=0;labelBackgroundColor=none;fontColor=#ffffff;" vertex="1" parent="1">
          <mxGeometry x="1235.25" y="473" width="77.5" height="20" as="geometry" />
        </mxCell>
        <mxCell id="pFR4GA6-vP2tQE4cFtqX-90" value="Job_Position" style="text;strokeColor=#314354;align=center;fillColor=#647687;html=1;verticalAlign=middle;whiteSpace=wrap;rounded=0;labelBackgroundColor=none;fontColor=#ffffff;" vertex="1" parent="1">
          <mxGeometry x="1320.25" y="473" width="77.5" height="20" as="geometry" />
        </mxCell>
        <mxCell id="pFR4GA6-vP2tQE4cFtqX-91" value="Place" style="text;strokeColor=#314354;align=center;fillColor=#647687;html=1;verticalAlign=middle;whiteSpace=wrap;rounded=0;labelBackgroundColor=none;fontColor=#ffffff;" vertex="1" parent="1">
          <mxGeometry x="1407.25" y="473" width="77.5" height="20" as="geometry" />
        </mxCell>
        <mxCell id="pFR4GA6-vP2tQE4cFtqX-92" value="End_Date" style="text;strokeColor=#314354;align=center;fillColor=#647687;html=1;verticalAlign=middle;whiteSpace=wrap;rounded=0;labelBackgroundColor=none;fontColor=#ffffff;" vertex="1" parent="1">
          <mxGeometry x="1320.25" y="503" width="77.5" height="20" as="geometry" />
        </mxCell>
        <mxCell id="pFR4GA6-vP2tQE4cFtqX-94" value="Start_Date" style="text;strokeColor=#314354;align=center;fillColor=#647687;html=1;verticalAlign=middle;whiteSpace=wrap;rounded=0;labelBackgroundColor=none;fontColor=#ffffff;" vertex="1" parent="1">
          <mxGeometry x="1235.25" y="503" width="77.5" height="20" as="geometry" />
        </mxCell>
        <mxCell id="pFR4GA6-vP2tQE4cFtqX-96" value="Functions_Description" style="text;strokeColor=#314354;align=center;fillColor=#647687;html=1;verticalAlign=middle;whiteSpace=wrap;rounded=0;labelBackgroundColor=none;fontColor=#ffffff;" vertex="1" parent="1">
          <mxGeometry x="1235.25" y="530" width="127.5" height="20" as="geometry" />
        </mxCell>
        <mxCell id="pFR4GA6-vP2tQE4cFtqX-98" value="Company_Photo" style="text;strokeColor=#314354;align=center;fillColor=#647687;html=1;verticalAlign=middle;whiteSpace=wrap;rounded=0;labelBackgroundColor=none;fontColor=#ffffff;" vertex="1" parent="1">
          <mxGeometry x="1407.25" y="503" width="127.5" height="20" as="geometry" />
        </mxCell>
        <mxCell id="pFR4GA6-vP2tQE4cFtqX-99" style="edgeStyle=orthogonalEdgeStyle;rounded=0;orthogonalLoop=1;jettySize=auto;html=1;endArrow=none;endFill=0;exitX=0.75;exitY=1;exitDx=0;exitDy=0;entryX=0;entryY=0.5;entryDx=0;entryDy=0;" edge="1" parent="1" source="pFR4GA6-vP2tQE4cFtqX-58" target="pFR4GA6-vP2tQE4cFtqX-100">
          <mxGeometry relative="1" as="geometry">
            <Array as="points">
              <mxPoint x="950" y="650" />
            </Array>
            <mxPoint x="947.5" y="677" as="sourcePoint" />
            <mxPoint x="1127" y="650" as="targetPoint" />
          </mxGeometry>
        </mxCell>
        <mxCell id="pFR4GA6-vP2tQE4cFtqX-100" value="&lt;div&gt;HAS&lt;/div&gt;" style="rhombus;whiteSpace=wrap;html=1;" vertex="1" parent="1">
          <mxGeometry x="1134.5" y="627" width="80" height="45" as="geometry" />
        </mxCell>
        <mxCell id="pFR4GA6-vP2tQE4cFtqX-101" value="Tag" style="rounded=0;whiteSpace=wrap;html=1;labelBackgroundColor=none;fillColor=#F2CC8F;strokeColor=#E07A5F;fontColor=#393C56;" vertex="1" parent="1">
          <mxGeometry x="1284.5" y="639.5" width="100" height="20" as="geometry" />
        </mxCell>
        <mxCell id="pFR4GA6-vP2tQE4cFtqX-102" value="" style="endArrow=none;html=1;rounded=0;exitX=1;exitY=0.5;exitDx=0;exitDy=0;entryX=0;entryY=0.5;entryDx=0;entryDy=0;" edge="1" parent="1" target="pFR4GA6-vP2tQE4cFtqX-101">
          <mxGeometry width="50" height="50" relative="1" as="geometry">
            <mxPoint x="1214.5" y="649.16" as="sourcePoint" />
            <mxPoint x="1280.5" y="649.16" as="targetPoint" />
          </mxGeometry>
        </mxCell>
        <mxCell id="pFR4GA6-vP2tQE4cFtqX-105" value="ID" style="text;strokeColor=#314354;align=center;fillColor=#647687;html=1;verticalAlign=middle;whiteSpace=wrap;rounded=0;labelBackgroundColor=none;fontColor=#ffffff;" vertex="1" parent="1">
          <mxGeometry x="1392" y="627" width="77.5" height="20" as="geometry" />
        </mxCell>
        <mxCell id="pFR4GA6-vP2tQE4cFtqX-106" value="Name" style="text;strokeColor=#314354;align=center;fillColor=#647687;html=1;verticalAlign=middle;whiteSpace=wrap;rounded=0;labelBackgroundColor=none;fontColor=#ffffff;" vertex="1" parent="1">
          <mxGeometry x="1392" y="652" width="77.5" height="20" as="geometry" />
        </mxCell>
        <mxCell id="pFR4GA6-vP2tQE4cFtqX-108" style="edgeStyle=orthogonalEdgeStyle;rounded=0;orthogonalLoop=1;jettySize=auto;html=1;endArrow=none;endFill=0;entryX=0.5;entryY=1;entryDx=0;entryDy=0;exitX=0.5;exitY=0;exitDx=0;exitDy=0;" edge="1" parent="1" source="pFR4GA6-vP2tQE4cFtqX-113" target="pFR4GA6-vP2tQE4cFtqX-58">
          <mxGeometry relative="1" as="geometry">
            <Array as="points">
              <mxPoint x="932" y="680" />
              <mxPoint x="932" y="680" />
            </Array>
            <mxPoint x="907" y="780" as="sourcePoint" />
            <mxPoint x="868" y="613.5" as="targetPoint" />
          </mxGeometry>
        </mxCell>
        <mxCell id="pFR4GA6-vP2tQE4cFtqX-109" value="Review" style="rounded=0;whiteSpace=wrap;html=1;labelBackgroundColor=none;fillColor=#F2CC8F;strokeColor=#E07A5F;fontColor=#393C56;" vertex="1" parent="1">
          <mxGeometry x="815.75" y="770" width="70" height="20" as="geometry" />
        </mxCell>
        <mxCell id="pFR4GA6-vP2tQE4cFtqX-112" value="PLACES" style="rhombus;whiteSpace=wrap;html=1;" vertex="1" parent="1">
          <mxGeometry x="732" y="680" width="80" height="42" as="geometry" />
        </mxCell>
        <mxCell id="pFR4GA6-vP2tQE4cFtqX-113" value="GETS" style="rhombus;whiteSpace=wrap;html=1;" vertex="1" parent="1">
          <mxGeometry x="892" y="680" width="80" height="42" as="geometry" />
        </mxCell>
        <mxCell id="pFR4GA6-vP2tQE4cFtqX-114" style="edgeStyle=orthogonalEdgeStyle;rounded=0;orthogonalLoop=1;jettySize=auto;html=1;endArrow=none;endFill=0;entryX=0.5;entryY=1;entryDx=0;entryDy=0;exitX=1;exitY=0.5;exitDx=0;exitDy=0;" edge="1" parent="1" source="pFR4GA6-vP2tQE4cFtqX-109">
          <mxGeometry relative="1" as="geometry">
            <Array as="points">
              <mxPoint x="932" y="780" />
            </Array>
            <mxPoint x="931.86" y="822" as="sourcePoint" />
            <mxPoint x="931.86" y="722" as="targetPoint" />
          </mxGeometry>
        </mxCell>
        <mxCell id="pFR4GA6-vP2tQE4cFtqX-116" value="" style="endArrow=none;html=1;rounded=0;exitX=0.5;exitY=1;exitDx=0;exitDy=0;entryX=0;entryY=0.5;entryDx=0;entryDy=0;" edge="1" parent="1" source="pFR4GA6-vP2tQE4cFtqX-112" target="pFR4GA6-vP2tQE4cFtqX-109">
          <mxGeometry width="50" height="50" relative="1" as="geometry">
            <mxPoint x="817" y="750" as="sourcePoint" />
            <mxPoint x="772" y="780" as="targetPoint" />
            <Array as="points">
              <mxPoint x="772" y="780" />
            </Array>
          </mxGeometry>
        </mxCell>
        <mxCell id="pFR4GA6-vP2tQE4cFtqX-117" style="edgeStyle=orthogonalEdgeStyle;rounded=0;orthogonalLoop=1;jettySize=auto;html=1;endArrow=none;endFill=0;exitX=0.5;exitY=0;exitDx=0;exitDy=0;" edge="1" parent="1" source="pFR4GA6-vP2tQE4cFtqX-112">
          <mxGeometry relative="1" as="geometry">
            <Array as="points">
              <mxPoint x="772" y="580" />
            </Array>
            <mxPoint x="771.83" y="687" as="sourcePoint" />
            <mxPoint x="772" y="580" as="targetPoint" />
          </mxGeometry>
        </mxCell>
        <mxCell id="pFR4GA6-vP2tQE4cFtqX-123" value="Coach_ID" style="text;strokeColor=#314354;align=center;fillColor=#647687;html=1;verticalAlign=middle;whiteSpace=wrap;rounded=0;labelBackgroundColor=none;fontColor=#ffffff;" vertex="1" parent="1">
          <mxGeometry x="729.75" y="800" width="77.5" height="20" as="geometry" />
        </mxCell>
        <mxCell id="pFR4GA6-vP2tQE4cFtqX-124" value="Customer_ID" style="text;strokeColor=#314354;align=center;fillColor=#647687;html=1;verticalAlign=middle;whiteSpace=wrap;rounded=0;labelBackgroundColor=none;fontColor=#ffffff;" vertex="1" parent="1">
          <mxGeometry x="812.5" y="800" width="77.5" height="20" as="geometry" />
        </mxCell>
        <mxCell id="pFR4GA6-vP2tQE4cFtqX-125" value="Star_Number" style="text;strokeColor=#314354;align=center;fillColor=#647687;html=1;verticalAlign=middle;whiteSpace=wrap;rounded=0;labelBackgroundColor=none;fontColor=#ffffff;" vertex="1" parent="1">
          <mxGeometry x="898.5" y="800" width="77.5" height="20" as="geometry" />
        </mxCell>
        <mxCell id="pFR4GA6-vP2tQE4cFtqX-126" value="Opinion" style="text;strokeColor=#314354;align=center;fillColor=#647687;html=1;verticalAlign=middle;whiteSpace=wrap;rounded=0;labelBackgroundColor=none;fontColor=#ffffff;" vertex="1" parent="1">
          <mxGeometry x="774.75" y="825" width="77.5" height="20" as="geometry" />
        </mxCell>
        <mxCell id="pFR4GA6-vP2tQE4cFtqX-127" value="Timestamp" style="text;strokeColor=#314354;align=center;fillColor=#647687;html=1;verticalAlign=middle;whiteSpace=wrap;rounded=0;labelBackgroundColor=none;fontColor=#ffffff;" vertex="1" parent="1">
          <mxGeometry x="858.5" y="825" width="77.5" height="20" as="geometry" />
        </mxCell>
        <mxCell id="pFR4GA6-vP2tQE4cFtqX-128" value="SEND MESSAGE" style="rhombus;whiteSpace=wrap;html=1;" vertex="1" parent="1">
          <mxGeometry x="778.25" y="920" width="137.5" height="60" as="geometry" />
        </mxCell>
        <mxCell id="pFR4GA6-vP2tQE4cFtqX-129" style="edgeStyle=orthogonalEdgeStyle;rounded=0;orthogonalLoop=1;jettySize=auto;html=1;endArrow=none;endFill=0;entryX=0.031;entryY=1.022;entryDx=0;entryDy=0;entryPerimeter=0;" edge="1" parent="1" target="pFR4GA6-vP2tQE4cFtqX-57">
          <mxGeometry relative="1" as="geometry">
            <Array as="points">
              <mxPoint x="660" y="660" />
              <mxPoint x="740" y="660" />
              <mxPoint x="740" y="580" />
            </Array>
            <mxPoint x="660" y="940" as="sourcePoint" />
            <mxPoint x="739.25" y="599.5" as="targetPoint" />
          </mxGeometry>
        </mxCell>
        <mxCell id="pFR4GA6-vP2tQE4cFtqX-130" style="edgeStyle=orthogonalEdgeStyle;rounded=0;orthogonalLoop=1;jettySize=auto;html=1;endArrow=none;endFill=0;entryX=0.031;entryY=1.022;entryDx=0;entryDy=0;entryPerimeter=0;exitX=0;exitY=0.5;exitDx=0;exitDy=0;" edge="1" parent="1" source="pFR4GA6-vP2tQE4cFtqX-128" target="pFR4GA6-vP2tQE4cFtqX-57">
          <mxGeometry relative="1" as="geometry">
            <Array as="points">
              <mxPoint x="660" y="950" />
              <mxPoint x="660" y="660" />
              <mxPoint x="740" y="660" />
            </Array>
            <mxPoint x="660" y="940" as="sourcePoint" />
            <mxPoint x="740" y="580" as="targetPoint" />
          </mxGeometry>
        </mxCell>
        <mxCell id="pFR4GA6-vP2tQE4cFtqX-135" style="edgeStyle=orthogonalEdgeStyle;rounded=0;orthogonalLoop=1;jettySize=auto;html=1;endArrow=none;endFill=0;entryX=0.605;entryY=1.039;entryDx=0;entryDy=0;entryPerimeter=0;exitX=1;exitY=0.5;exitDx=0;exitDy=0;" edge="1" parent="1" source="pFR4GA6-vP2tQE4cFtqX-128" target="pFR4GA6-vP2tQE4cFtqX-58">
          <mxGeometry relative="1" as="geometry">
            <Array as="points">
              <mxPoint x="1000" y="950" />
              <mxPoint x="1000" y="670" />
              <mxPoint x="939" y="670" />
            </Array>
            <mxPoint x="920" y="950" as="sourcePoint" />
            <mxPoint x="940" y="650" as="targetPoint" />
          </mxGeometry>
        </mxCell>
        <mxCell id="pFR4GA6-vP2tQE4cFtqX-136" value="ID" style="text;strokeColor=#314354;align=center;fillColor=#647687;html=1;verticalAlign=middle;whiteSpace=wrap;rounded=0;labelBackgroundColor=none;fontColor=#ffffff;" vertex="1" parent="1">
          <mxGeometry x="714.5" y="1000" width="77.5" height="20" as="geometry" />
        </mxCell>
        <mxCell id="pFR4GA6-vP2tQE4cFtqX-138" value="Content" style="text;strokeColor=#314354;align=center;fillColor=#647687;html=1;verticalAlign=middle;whiteSpace=wrap;rounded=0;labelBackgroundColor=none;fontColor=#ffffff;" vertex="1" parent="1">
          <mxGeometry x="804.5" y="1000" width="77.5" height="20" as="geometry" />
        </mxCell>
        <mxCell id="pFR4GA6-vP2tQE4cFtqX-140" value="Origin" style="text;strokeColor=#314354;align=center;fillColor=#647687;html=1;verticalAlign=middle;whiteSpace=wrap;rounded=0;labelBackgroundColor=none;fontColor=#ffffff;" vertex="1" parent="1">
          <mxGeometry x="894.5" y="1000" width="77.5" height="20" as="geometry" />
        </mxCell>
        <mxCell id="pFR4GA6-vP2tQE4cFtqX-141" value="Message_Type" style="text;strokeColor=#314354;align=center;fillColor=#647687;html=1;verticalAlign=middle;whiteSpace=wrap;rounded=0;labelBackgroundColor=none;fontColor=#ffffff;" vertex="1" parent="1">
          <mxGeometry x="730.75" y="1030" width="110" height="20" as="geometry" />
        </mxCell>
        <mxCell id="pFR4GA6-vP2tQE4cFtqX-142" value="Origin" style="text;strokeColor=#314354;align=center;fillColor=#647687;html=1;verticalAlign=middle;whiteSpace=wrap;rounded=0;labelBackgroundColor=none;fontColor=#ffffff;" vertex="1" parent="1">
          <mxGeometry x="860.75" y="1030" width="77.5" height="20" as="geometry" />
        </mxCell>
        <mxCell id="pFR4GA6-vP2tQE4cFtqX-145" value="" style="endArrow=none;html=1;rounded=0;entryX=0.066;entryY=0.031;entryDx=0;entryDy=0;entryPerimeter=0;exitX=1;exitY=0.5;exitDx=0;exitDy=0;" edge="1" parent="1" source="pFR4GA6-vP2tQE4cFtqX-147" target="pFR4GA6-vP2tQE4cFtqX-57">
          <mxGeometry width="50" height="50" relative="1" as="geometry">
            <mxPoint x="580" y="460" as="sourcePoint" />
            <mxPoint x="760" y="560" as="targetPoint" />
            <Array as="points">
              <mxPoint x="743" y="530" />
            </Array>
          </mxGeometry>
        </mxCell>
        <mxCell id="pFR4GA6-vP2tQE4cFtqX-147" value="&lt;div&gt;HAS&lt;/div&gt;" style="rhombus;whiteSpace=wrap;html=1;" vertex="1" parent="1">
          <mxGeometry x="436.25" y="507" width="80" height="45" as="geometry" />
        </mxCell>
        <mxCell id="pFR4GA6-vP2tQE4cFtqX-150" value="Muscle" style="text;strokeColor=#314354;align=center;fillColor=#647687;html=1;verticalAlign=middle;whiteSpace=wrap;rounded=0;labelBackgroundColor=none;fontColor=#ffffff;" vertex="1" parent="1">
          <mxGeometry x="345" y="550" width="77.5" height="20" as="geometry" />
        </mxCell>
        <mxCell id="pFR4GA6-vP2tQE4cFtqX-151" value="Fatigue" style="rounded=0;whiteSpace=wrap;html=1;labelBackgroundColor=none;fillColor=#F2CC8F;strokeColor=#E07A5F;fontColor=#393C56;" vertex="1" parent="1">
          <mxGeometry x="290" y="519.5" width="100" height="20" as="geometry" />
        </mxCell>
        <mxCell id="pFR4GA6-vP2tQE4cFtqX-152" value="" style="endArrow=none;html=1;rounded=0;exitX=1;exitY=0.5;exitDx=0;exitDy=0;entryX=0;entryY=0.5;entryDx=0;entryDy=0;" edge="1" parent="1" source="pFR4GA6-vP2tQE4cFtqX-151" target="pFR4GA6-vP2tQE4cFtqX-147">
          <mxGeometry width="50" height="50" relative="1" as="geometry">
            <mxPoint x="590" y="630" as="sourcePoint" />
            <mxPoint x="640" y="580" as="targetPoint" />
          </mxGeometry>
        </mxCell>
        <mxCell id="pFR4GA6-vP2tQE4cFtqX-153" value="Level" style="text;strokeColor=#314354;align=center;fillColor=#647687;html=1;verticalAlign=middle;whiteSpace=wrap;rounded=0;labelBackgroundColor=none;fontColor=#ffffff;" vertex="1" parent="1">
          <mxGeometry x="345" y="578" width="77.5" height="20" as="geometry" />
        </mxCell>
        <mxCell id="pFR4GA6-vP2tQE4cFtqX-154" value="Customer" style="text;strokeColor=#314354;align=center;fillColor=#647687;html=1;verticalAlign=middle;whiteSpace=wrap;rounded=0;labelBackgroundColor=none;fontColor=#ffffff;" vertex="1" parent="1">
          <mxGeometry x="257.5" y="578" width="77.5" height="20" as="geometry" />
        </mxCell>
        <mxCell id="pFR4GA6-vP2tQE4cFtqX-155" value="ID" style="text;strokeColor=#314354;align=center;fillColor=#647687;html=1;verticalAlign=middle;whiteSpace=wrap;rounded=0;labelBackgroundColor=none;fontColor=#ffffff;" vertex="1" parent="1">
          <mxGeometry x="257.5" y="550" width="77.5" height="20" as="geometry" />
        </mxCell>
        <mxCell id="pFR4GA6-vP2tQE4cFtqX-156" value="IS ASSIGNED TO" style="rhombus;whiteSpace=wrap;html=1;" vertex="1" parent="1">
          <mxGeometry x="262" y="433" width="156" height="40" as="geometry" />
        </mxCell>
        <mxCell id="pFR4GA6-vP2tQE4cFtqX-165" value="" style="endArrow=none;html=1;rounded=0;exitX=0.5;exitY=0;exitDx=0;exitDy=0;entryX=0.5;entryY=1;entryDx=0;entryDy=0;" edge="1" parent="1" source="pFR4GA6-vP2tQE4cFtqX-151" target="pFR4GA6-vP2tQE4cFtqX-156">
          <mxGeometry width="50" height="50" relative="1" as="geometry">
            <mxPoint x="450" y="410" as="sourcePoint" />
            <mxPoint x="500" y="360" as="targetPoint" />
          </mxGeometry>
        </mxCell>
        <mxCell id="pFR4GA6-vP2tQE4cFtqX-166" value="Muscle" style="rounded=0;whiteSpace=wrap;html=1;labelBackgroundColor=none;fillColor=#F2CC8F;strokeColor=#E07A5F;fontColor=#393C56;" vertex="1" parent="1">
          <mxGeometry x="290" y="360" width="100" height="20" as="geometry" />
        </mxCell>
        <mxCell id="pFR4GA6-vP2tQE4cFtqX-168" value="" style="endArrow=none;html=1;rounded=0;entryX=0.5;entryY=1;entryDx=0;entryDy=0;exitX=0.5;exitY=0;exitDx=0;exitDy=0;" edge="1" parent="1" source="pFR4GA6-vP2tQE4cFtqX-156" target="pFR4GA6-vP2tQE4cFtqX-166">
          <mxGeometry width="50" height="50" relative="1" as="geometry">
            <mxPoint x="414" y="450" as="sourcePoint" />
            <mxPoint x="464" y="400" as="targetPoint" />
          </mxGeometry>
        </mxCell>
        <mxCell id="pFR4GA6-vP2tQE4cFtqX-169" value="ID" style="text;strokeColor=#314354;align=center;fillColor=#647687;html=1;verticalAlign=middle;whiteSpace=wrap;rounded=0;labelBackgroundColor=none;fontColor=#ffffff;" vertex="1" parent="1">
          <mxGeometry x="212.5" y="330" width="77.5" height="20" as="geometry" />
        </mxCell>
        <mxCell id="pFR4GA6-vP2tQE4cFtqX-170" value="Name" style="text;strokeColor=#314354;align=center;fillColor=#647687;html=1;verticalAlign=middle;whiteSpace=wrap;rounded=0;labelBackgroundColor=none;fontColor=#ffffff;" vertex="1" parent="1">
          <mxGeometry x="301.25" y="330" width="77.5" height="20" as="geometry" />
        </mxCell>
        <mxCell id="pFR4GA6-vP2tQE4cFtqX-171" value="Group" style="text;strokeColor=#314354;align=center;fillColor=#647687;html=1;verticalAlign=middle;whiteSpace=wrap;rounded=0;labelBackgroundColor=none;fontColor=#ffffff;" vertex="1" parent="1">
          <mxGeometry x="390" y="330" width="77.5" height="20" as="geometry" />
        </mxCell>
      </root>
    </mxGraphModel>
  </diagram>
</mxfile>
